<?xml version="1.0" encoding="utf-8"?>
<!-- Generator: Adobe Illustrator 25.4.6, SVG Export Plug-In . SVG Version: 6.00 Build 0)  -->
<svg version="1.1"
	 id="svg48" inkscape:export-filename="Citalli.png" inkscape:export-xdpi="281.25" inkscape:export-ydpi="281.25" inkscape:version="1.2.1 (9c6d41e410, 2022-07-14, custom)" sodipodi:docname="Citalli.svg" xmlns:inkscape="http://www.inkscape.org/namespaces/inkscape" xmlns:sodipodi="http://sodipodi.sourceforge.net/DTD/sodipodi-0.dtd" xmlns:svg="http://www.w3.org/2000/svg"
	 xmlns="http://www.w3.org/2000/svg" xmlns:xlink="http://www.w3.org/1999/xlink" x="0px" y="0px" viewBox="0 0 400 400"
	 style="enable-background:new 0 0 400 400;" xml:space="preserve">
<style type="text/css">
	.st0{fill:none;stroke:#FFFFFF;stroke-width:10;}
	.st1{fill:none;stroke:#FFFFFF;stroke-width:3;stroke-linecap:round;}
	.st2{fill:none;stroke:#FFFFFF;stroke-width:6.0668;stroke-miterlimit:3.0334;}
	.st3{fill:none;stroke:#FFFFFF;stroke-width:2;}
	.st4{opacity:0.5;fill:#FFFFFF;}
	.st5{opacity:0.75;fill:#FFFFFF;}
</style>
<path id="path1001" class="st0" d="M200,11.6l-13.3,28.1c-33.5,2.8-65.3,15.9-91.1,37.4L66.8,66.8L77,95.3
	c-22.3,25.9-35.9,58.2-38.9,92.2L11.6,200l26.2,12.4c2.1,35.1,15.5,68.6,38.1,95.5l-9.1,25.4l25.1-9c27,23.9,61.1,38.2,97.1,40.8
	l11.1,23.4l10.8-22.9c36.5-2.2,71.2-16.6,98.6-40.8l23.8,8.5l-8.6-24c23.7-27.4,37.6-61.8,39.7-97.9l24.1-11.4L364,188.4
	c-3-35-17.2-68.2-40.5-94.5l9.7-27.2l-27.6,9.9c-26.2-21.8-58.6-34.9-92.6-37.4L200,11.6z"/>
<path id="path1001-3" class="st1" d="M323.5,200c0,68.2-55.3,123.5-123.5,123.5h0c-68.2,0-123.5-55.3-123.5-123.5l0,0
	c0-68.2,55.3-123.5,123.5-123.5S323.5,131.8,323.5,200z"/>
<path id="path441" inkscape:flatsided="false" inkscape:randomized="0" inkscape:rounded="0" sodipodi:arg1="0.78539816" sodipodi:arg2="1.1780972" sodipodi:cx="120" sodipodi:cy="130" sodipodi:r1="56.568542" sodipodi:r2="32.624699" sodipodi:sides="8" sodipodi:type="star" class="st2" d="
	M205.3,255.3l-20.9-7.5l-9.5,20l-9.5-20l-20.9,7.5l7.5-20.9l-20-9.5l20-9.5l-7.5-20.9l20.9,7.5l9.5-20l9.5,20l20.9-7.5l-7.5,20.9
	l20,9.5l-20,9.5L205.3,255.3z"/>
<g>
	
		<path id="path998-3" inkscape:flatsided="true" inkscape:randomized="0" inkscape:rounded="0" inkscape:transform-center-y="2.564095" sodipodi:arg1="1.5707963" sodipodi:arg2="2.6179939" sodipodi:cx="200" sodipodi:cy="50" sodipodi:r1="10" sodipodi:r2="5" sodipodi:sides="3" sodipodi:type="star" class="st3" d="
		M200,66.9l-7.7-15.4h15.4L200,66.9z"/>
	
		<path id="path998-3_00000029734644335144143140000014000840129274050443_" inkscape:flatsided="true" inkscape:randomized="0" inkscape:rounded="0" inkscape:transform-center-y="2.564095" sodipodi:arg1="1.5707963" sodipodi:arg2="2.6179939" sodipodi:cx="200" sodipodi:cy="50" sodipodi:r1="10" sodipodi:r2="5" sodipodi:sides="3" sodipodi:type="star" class="st3" d="
		M350.3,192.5v15.4l-15.4-7.7L350.3,192.5z"/>
	
		<path id="path998-3_00000008871760729318741010000006992145225053726390_" inkscape:flatsided="true" inkscape:randomized="0" inkscape:rounded="0" inkscape:transform-center-y="2.564095" sodipodi:arg1="1.5707963" sodipodi:arg2="2.6179939" sodipodi:cx="200" sodipodi:cy="50" sodipodi:r1="10" sodipodi:r2="5" sodipodi:sides="3" sodipodi:type="star" class="st3" d="
		M66.2,200.2l-15.4,7.7v-15.4L66.2,200.2z"/>
	
		<path id="path998-3_00000166652938680426066140000010897456278047068061_" inkscape:flatsided="true" inkscape:randomized="0" inkscape:rounded="0" inkscape:transform-center-y="2.564095" sodipodi:arg1="1.5707963" sodipodi:arg2="2.6179939" sodipodi:cx="200" sodipodi:cy="50" sodipodi:r1="10" sodipodi:r2="5" sodipodi:sides="3" sodipodi:type="star" class="st3" d="
		M207.7,350.4h-15.4l7.7-15.4L207.7,350.4z"/>
	
		<path id="path998-3_00000075140935190714508050000004032458188399368595_" inkscape:flatsided="true" inkscape:randomized="0" inkscape:rounded="0" inkscape:transform-center-y="2.564095" sodipodi:arg1="1.5707963" sodipodi:arg2="2.6179939" sodipodi:cx="200" sodipodi:cy="50" sodipodi:r1="10" sodipodi:r2="5" sodipodi:sides="3" sodipodi:type="star" class="st3" d="
		M94.7,93.6l16.3,5.4l-10.9,10.9L94.7,93.6z"/>
	
		<path id="path998-3_00000160157990541809858460000003733215661251971484_" inkscape:flatsided="true" inkscape:randomized="0" inkscape:rounded="0" inkscape:transform-center-y="2.564095" sodipodi:arg1="1.5707963" sodipodi:arg2="2.6179939" sodipodi:cx="200" sodipodi:cy="50" sodipodi:r1="10" sodipodi:r2="5" sodipodi:sides="3" sodipodi:type="star" class="st3" d="
		M304.7,306.7l-16.3-5.4l10.9-10.9L304.7,306.7z"/>
	
		<path id="path998-3_00000103969410595709591600000009592824005395649976_" inkscape:flatsided="true" inkscape:randomized="0" inkscape:rounded="0" inkscape:transform-center-y="2.564095" sodipodi:arg1="1.5707963" sodipodi:arg2="2.6179939" sodipodi:cx="200" sodipodi:cy="50" sodipodi:r1="10" sodipodi:r2="5" sodipodi:sides="3" sodipodi:type="star" class="st3" d="
		M305.7,95.2l-5.4,16.3l-10.9-10.9L305.7,95.2z"/>
	
		<path id="path998-3_00000038385769700737212970000006188368174965602948_" inkscape:flatsided="true" inkscape:randomized="0" inkscape:rounded="0" inkscape:transform-center-y="2.564095" sodipodi:arg1="1.5707963" sodipodi:arg2="2.6179939" sodipodi:cx="200" sodipodi:cy="50" sodipodi:r1="10" sodipodi:r2="5" sodipodi:sides="3" sodipodi:type="star" class="st3" d="
		M94.8,306.1l5.4-16.3l10.9,10.9L94.8,306.1z"/>
	
		<path id="path998-3_00000168808782825730747600000017232108701054204607_" inkscape:flatsided="true" inkscape:randomized="0" inkscape:rounded="0" inkscape:transform-center-y="2.564095" sodipodi:arg1="1.5707963" sodipodi:arg2="2.6179939" sodipodi:cx="200" sodipodi:cy="50" sodipodi:r1="10" sodipodi:r2="5" sodipodi:sides="3" sodipodi:type="star" class="st4" d="
		M200,66.9l-7.7-15.4h15.4L200,66.9z"/>
	
		<path id="path998-3_00000031167445622640494720000001905461816200818821_" inkscape:flatsided="true" inkscape:randomized="0" inkscape:rounded="0" inkscape:transform-center-y="2.564095" sodipodi:arg1="1.5707963" sodipodi:arg2="2.6179939" sodipodi:cx="200" sodipodi:cy="50" sodipodi:r1="10" sodipodi:r2="5" sodipodi:sides="3" sodipodi:type="star" class="st4" d="
		M350.3,192.5v15.4l-15.4-7.7L350.3,192.5z"/>
	
		<path id="path998-3_00000146457080338969866470000017937182004111713166_" inkscape:flatsided="true" inkscape:randomized="0" inkscape:rounded="0" inkscape:transform-center-y="2.564095" sodipodi:arg1="1.5707963" sodipodi:arg2="2.6179939" sodipodi:cx="200" sodipodi:cy="50" sodipodi:r1="10" sodipodi:r2="5" sodipodi:sides="3" sodipodi:type="star" class="st4" d="
		M66.2,200.2l-15.4,7.7v-15.4L66.2,200.2z"/>
	
		<path id="path998-3_00000019656908942910432760000016364130580773793665_" inkscape:flatsided="true" inkscape:randomized="0" inkscape:rounded="0" inkscape:transform-center-y="2.564095" sodipodi:arg1="1.5707963" sodipodi:arg2="2.6179939" sodipodi:cx="200" sodipodi:cy="50" sodipodi:r1="10" sodipodi:r2="5" sodipodi:sides="3" sodipodi:type="star" class="st4" d="
		M207.7,350.4h-15.4l7.7-15.4L207.7,350.4z"/>
	
		<path id="path998-3_00000174572674265621049150000003134123304007398042_" inkscape:flatsided="true" inkscape:randomized="0" inkscape:rounded="0" inkscape:transform-center-y="2.564095" sodipodi:arg1="1.5707963" sodipodi:arg2="2.6179939" sodipodi:cx="200" sodipodi:cy="50" sodipodi:r1="10" sodipodi:r2="5" sodipodi:sides="3" sodipodi:type="star" class="st4" d="
		M94.7,93.6l16.3,5.4l-10.9,10.9L94.7,93.6z"/>
	
		<path id="path998-3_00000127007628561540837340000015413202114334153915_" inkscape:flatsided="true" inkscape:randomized="0" inkscape:rounded="0" inkscape:transform-center-y="2.564095" sodipodi:arg1="1.5707963" sodipodi:arg2="2.6179939" sodipodi:cx="200" sodipodi:cy="50" sodipodi:r1="10" sodipodi:r2="5" sodipodi:sides="3" sodipodi:type="star" class="st4" d="
		M304.7,306.7l-16.3-5.4l10.9-10.9L304.7,306.7z"/>
	
		<path id="path998-3_00000059304214400330728420000002968603336057277363_" inkscape:flatsided="true" inkscape:randomized="0" inkscape:rounded="0" inkscape:transform-center-y="2.564095" sodipodi:arg1="1.5707963" sodipodi:arg2="2.6179939" sodipodi:cx="200" sodipodi:cy="50" sodipodi:r1="10" sodipodi:r2="5" sodipodi:sides="3" sodipodi:type="star" class="st4" d="
		M305.7,95.2l-5.4,16.3l-10.9-10.9L305.7,95.2z"/>
	
		<path id="path998-3_00000137816794442925321450000002842344217010629003_" inkscape:flatsided="true" inkscape:randomized="0" inkscape:rounded="0" inkscape:transform-center-y="2.564095" sodipodi:arg1="1.5707963" sodipodi:arg2="2.6179939" sodipodi:cx="200" sodipodi:cy="50" sodipodi:r1="10" sodipodi:r2="5" sodipodi:sides="3" sodipodi:type="star" class="st4" d="
		M94.8,306.1l5.4-16.3l10.9,10.9L94.8,306.1z"/>
</g>
<polygon class="st5" points="237.8,192.5 237.8,162.3 207.7,162.3 267.9,132.1 "/>
</svg>
